<?xml version="1.0" encoding="utf-8"?>
<!-- Generator: Adobe Illustrator 17.0.0, SVG Export Plug-In . SVG Version: 6.00 Build 0)  -->
<!DOCTYPE svg PUBLIC "-//W3C//DTD SVG 1.1//EN" "http://www.w3.org/Graphics/SVG/1.1/DTD/svg11.dtd">
<svg version="1.1" id="Layer_1" xmlns="http://www.w3.org/2000/svg" xmlns:xlink="http://www.w3.org/1999/xlink" x="0px" y="0px"
	 width="651.136px" height="400px" viewBox="0 0 651.136 400" enable-background="new 0 0 651.136 400" xml:space="preserve">
<rect x="6.4" y="40.5" fill="#DEDDDD" width="639" height="319.044"/>
<g>
	<path fill="#999999" d="M585.059,67.042h29.492c2.715,0,4.915,2.195,4.915,4.908v39.267c0,2.713-2.201,4.908-4.915,4.908h-29.492
		c-2.714,0-4.915-2.196-4.915-4.908V71.95C580.144,69.237,582.345,67.042,585.059,67.042z"/>
	<path fill="#999999" d="M524.042,67.042h29.492c2.715,0,4.915,2.195,4.915,4.908v39.267c0,2.713-2.201,4.908-4.915,4.908h-29.492
		c-2.717,0-4.915-2.196-4.915-4.908V71.95C519.126,69.237,521.325,67.042,524.042,67.042z"/>
	<path fill="#999999" d="M463.022,67.042h29.492c2.714,0,4.915,2.195,4.915,4.908v39.267c0,2.713-2.201,4.908-4.915,4.908h-29.492
		c-2.715,0-4.915-2.196-4.915-4.908V71.95C458.107,69.237,460.307,67.042,463.022,67.042z"/>
	<path fill="#999999" d="M402.004,67.042h29.492c2.715,0,4.915,2.195,4.915,4.908v39.267c0,2.713-2.201,4.908-4.915,4.908h-29.492
		c-2.714,0-4.915-2.196-4.915-4.908V71.95C397.089,69.237,399.29,67.042,402.004,67.042z"/>
	<path fill="#999999" d="M340.984,67.042h29.492c2.715,0,4.915,2.195,4.915,4.908v39.267c0,2.713-2.201,4.908-4.915,4.908h-29.492
		c-2.714,0-4.915-2.196-4.915-4.908V71.95C336.069,69.237,338.27,67.042,340.984,67.042z"/>
	<path fill="#999999" d="M279.967,67.042h29.492c2.714,0,4.915,2.195,4.915,4.908v39.267c0,2.713-2.201,4.908-4.915,4.908h-29.492
		c-2.715,0-4.915-2.196-4.915-4.908V71.95C275.052,69.237,277.252,67.042,279.967,67.042z"/>
	<path fill="#999999" d="M218.947,67.042h29.492c2.715,0,4.915,2.195,4.915,4.908v39.267c0,2.713-2.201,4.908-4.915,4.908h-29.492
		c-2.714,0-4.915-2.196-4.915-4.908V71.95C214.032,69.237,216.233,67.042,218.947,67.042z"/>
	<path fill="#999999" d="M157.929,67.042h29.492c2.715,0,4.915,2.195,4.915,4.908v39.267c0,2.713-2.201,4.908-4.915,4.908h-29.492
		c-2.714,0-4.915-2.196-4.915-4.908V71.95C153.014,69.237,155.215,67.042,157.929,67.042z"/>
	<path fill="#999999" d="M96.91,67.042h29.492c2.714,0,4.915,2.195,4.915,4.908v39.267c0,2.713-2.201,4.908-4.915,4.908H96.91
		c-2.715,0-4.915-2.196-4.915-4.908V71.95C91.994,69.237,94.195,67.042,96.91,67.042z"/>
	<path fill="#999999" d="M35.892,67.042h29.492c2.714,0,4.915,2.195,4.915,4.908v39.267c0,2.713-2.201,4.908-4.915,4.908H35.892
		c-2.714,0-4.915-2.196-4.915-4.908V71.95C30.977,69.237,33.178,67.042,35.892,67.042z"/>
	<path fill="#999999" d="M552.305,140.667h29.492c2.715,0,4.915,2.195,4.915,4.908v39.267c0,2.713-2.201,4.908-4.915,4.908h-29.492
		c-2.717,0-4.915-2.195-4.915-4.908v-39.267C547.39,142.863,549.588,140.667,552.305,140.667z"/>
	<path fill="#999999" d="M491.285,140.667h29.492c2.714,0,4.915,2.195,4.915,4.908v39.267c0,2.713-2.201,4.908-4.915,4.908h-29.492
		c-2.715,0-4.915-2.195-4.915-4.908v-39.267C486.37,142.863,488.571,140.667,491.285,140.667z"/>
	<path fill="#999999" d="M430.268,140.667h29.492c2.715,0,4.915,2.195,4.915,4.908v39.267c0,2.713-2.201,4.908-4.915,4.908h-29.492
		c-2.714,0-4.915-2.195-4.915-4.908v-39.267C425.352,142.863,427.553,140.667,430.268,140.667z"/>
	<path fill="#999999" d="M369.248,140.667h29.492c2.715,0,4.915,2.195,4.915,4.908v39.267c0,2.713-2.201,4.908-4.915,4.908h-29.492
		c-2.714,0-4.915-2.195-4.915-4.908v-39.267C364.332,142.863,366.533,140.667,369.248,140.667z"/>
	<path fill="#999999" d="M308.231,140.667h29.492c2.714,0,4.915,2.195,4.915,4.908v39.267c0,2.713-2.201,4.908-4.915,4.908h-29.492
		c-2.715,0-4.915-2.195-4.915-4.908v-39.267C303.315,142.863,305.516,140.667,308.231,140.667z"/>
	<path fill="#999999" d="M247.211,140.667h29.492c2.715,0,4.915,2.195,4.915,4.908v39.267c0,2.713-2.201,4.908-4.915,4.908h-29.492
		c-2.714,0-4.915-2.195-4.915-4.908v-39.267C242.295,142.863,244.496,140.667,247.211,140.667z"/>
	<path fill="#999999" d="M186.193,140.667h29.492c2.715,0,4.915,2.195,4.915,4.908v39.267c0,2.713-2.201,4.908-4.915,4.908h-29.492
		c-2.714,0-4.915-2.195-4.915-4.908v-39.267C181.278,142.863,183.479,140.667,186.193,140.667z"/>
	<path fill="#999999" d="M125.173,140.667h29.492c2.714,0,4.915,2.195,4.915,4.908v39.267c0,2.713-2.201,4.908-4.915,4.908h-29.492
		c-2.715,0-4.915-2.195-4.915-4.908v-39.267C120.258,142.863,122.459,140.667,125.173,140.667z"/>
	<path fill="#999999" d="M64.156,140.667h29.492c2.714,0,4.915,2.195,4.915,4.908v39.267c0,2.713-2.201,4.908-4.915,4.908H64.156
		c-2.714,0-4.915-2.195-4.915-4.908v-39.267C59.24,142.863,61.441,140.667,64.156,140.667z"/>
	<path fill="#999999" d="M491.794,214.293h29.492c2.714,0,4.915,2.195,4.915,4.908v39.267c0,2.713-2.201,4.908-4.915,4.908h-29.492
		c-2.714,0-4.915-2.195-4.915-4.908v-39.267C486.879,216.488,489.08,214.293,491.794,214.293z"/>
	<path fill="#999999" d="M430.777,214.293h29.492c2.715,0,4.915,2.195,4.915,4.908v39.267c0,2.713-2.201,4.908-4.915,4.908h-29.492
		c-2.714,0-4.915-2.195-4.915-4.908v-39.267C425.861,216.488,428.062,214.293,430.777,214.293z"/>
	<path fill="#999999" d="M369.757,214.293h29.492c2.714,0,4.915,2.195,4.915,4.908v39.267c0,2.713-2.201,4.908-4.915,4.908h-29.492
		c-2.715,0-4.915-2.195-4.915-4.908v-39.267C364.841,216.488,367.042,214.293,369.757,214.293z"/>
	<path fill="#999999" d="M308.739,214.293h29.492c2.714,0,4.915,2.195,4.915,4.908v39.267c0,2.713-2.201,4.908-4.915,4.908h-29.492
		c-2.715,0-4.915-2.195-4.915-4.908v-39.267C303.824,216.488,306.025,214.293,308.739,214.293z"/>
	<path fill="#999999" d="M247.719,214.293h29.492c2.715,0,4.915,2.195,4.915,4.908v39.267c0,2.713-2.201,4.908-4.915,4.908h-29.492
		c-2.714,0-4.915-2.195-4.915-4.908v-39.267C242.804,216.488,245.005,214.293,247.719,214.293z"/>
	<path fill="#999999" d="M186.702,214.293h29.492c2.714,0,4.915,2.195,4.915,4.908v39.267c0,2.713-2.201,4.908-4.915,4.908h-29.492
		c-2.715,0-4.915-2.195-4.915-4.908v-39.267C181.787,216.488,183.987,214.293,186.702,214.293z"/>
	<path fill="#999999" d="M125.682,214.293h29.492c2.714,0,4.915,2.195,4.915,4.908v39.267c0,2.713-2.201,4.908-4.915,4.908h-29.492
		c-2.715,0-4.915-2.195-4.915-4.908v-39.267C120.767,216.488,122.967,214.293,125.682,214.293z"/>
	<path fill="#999999" d="M552.008,214.293h63.9c2.714,0,4.915,2.195,4.915,4.908v39.267c0,2.713-2.201,4.908-4.915,4.908h-63.9
		c-2.714,0-4.915-2.195-4.915-4.908v-39.267C547.092,216.488,549.293,214.293,552.008,214.293z"/>
	<path fill="#999999" d="M35.892,214.293h49.154c2.714,0,4.915,2.195,4.915,4.908v39.267c0,2.713-2.201,4.908-4.915,4.908H35.892
		c-2.714,0-4.915-2.195-4.915-4.908v-39.267C30.977,216.488,33.178,214.293,35.892,214.293z"/>
	<path fill="#999999" d="M188.053,287.918h270.439c3.46,0,6.267,2.196,6.267,4.908v39.267c0,2.713-2.806,4.908-6.267,4.908H188.053
		c-3.46,0-6.267-2.195-6.267-4.908v-39.267C181.787,290.114,184.593,287.918,188.053,287.918z"/>
	<path fill="#999999" d="M502.854,287.918h113.054c2.714,0,4.915,2.196,4.915,4.908v39.267c0,2.713-2.201,4.908-4.915,4.908H502.854
		c-2.714,0-4.915-2.195-4.915-4.908v-39.267C497.938,290.114,500.139,287.918,502.854,287.918z"/>
	<path fill="#999999" d="M35.892,287.918h105.323c2.714,0,4.915,2.196,4.915,4.908v39.267c0,2.713-2.201,4.908-4.915,4.908H35.892
		c-2.714,0-4.915-2.195-4.915-4.908v-39.267C30.977,290.114,33.178,287.918,35.892,287.918z"/>
</g>
<path fill="#EEEEEE" d="M585.059,65.042h29.492c2.715,0,4.915,2.195,4.915,4.908v39.267c0,2.713-2.201,4.908-4.915,4.908h-29.492
	c-2.714,0-4.915-2.196-4.915-4.908V69.95C580.144,67.237,582.345,65.042,585.059,65.042z"/>
<path fill="#EEEEEE" d="M524.042,65.042h29.492c2.715,0,4.915,2.195,4.915,4.908v39.267c0,2.713-2.201,4.908-4.915,4.908h-29.492
	c-2.717,0-4.915-2.196-4.915-4.908V69.95C519.126,67.237,521.325,65.042,524.042,65.042z"/>
<path fill="#EEEEEE" d="M463.022,65.042h29.492c2.714,0,4.915,2.195,4.915,4.908v39.267c0,2.713-2.201,4.908-4.915,4.908h-29.492
	c-2.715,0-4.915-2.196-4.915-4.908V69.95C458.107,67.237,460.307,65.042,463.022,65.042z"/>
<path fill="#EEEEEE" d="M402.004,65.042h29.492c2.715,0,4.915,2.195,4.915,4.908v39.267c0,2.713-2.201,4.908-4.915,4.908h-29.492
	c-2.714,0-4.915-2.196-4.915-4.908V69.95C397.089,67.237,399.29,65.042,402.004,65.042z"/>
<path fill="#EEEEEE" d="M340.984,65.042h29.492c2.715,0,4.915,2.195,4.915,4.908v39.267c0,2.713-2.201,4.908-4.915,4.908h-29.492
	c-2.714,0-4.915-2.196-4.915-4.908V69.95C336.069,67.237,338.27,65.042,340.984,65.042z"/>
<path fill="#EEEEEE" d="M279.967,65.042h29.492c2.714,0,4.915,2.195,4.915,4.908v39.267c0,2.713-2.201,4.908-4.915,4.908h-29.492
	c-2.715,0-4.915-2.196-4.915-4.908V69.95C275.052,67.237,277.252,65.042,279.967,65.042z"/>
<path fill="#EEEEEE" d="M218.947,65.042h29.492c2.715,0,4.915,2.195,4.915,4.908v39.267c0,2.713-2.201,4.908-4.915,4.908h-29.492
	c-2.714,0-4.915-2.196-4.915-4.908V69.95C214.032,67.237,216.233,65.042,218.947,65.042z"/>
<path fill="#EEEEEE" d="M157.929,65.042h29.492c2.715,0,4.915,2.195,4.915,4.908v39.267c0,2.713-2.201,4.908-4.915,4.908h-29.492
	c-2.714,0-4.915-2.196-4.915-4.908V69.95C153.014,67.237,155.215,65.042,157.929,65.042z"/>
<path fill="#EEEEEE" d="M96.91,65.042h29.492c2.714,0,4.915,2.195,4.915,4.908v39.267c0,2.713-2.201,4.908-4.915,4.908H96.91
	c-2.715,0-4.915-2.196-4.915-4.908V69.95C91.994,67.237,94.195,65.042,96.91,65.042z"/>
<path fill="#EEEEEE" d="M35.892,65.042h29.492c2.714,0,4.915,2.195,4.915,4.908v39.267c0,2.713-2.201,4.908-4.915,4.908H35.892
	c-2.714,0-4.915-2.196-4.915-4.908V69.95C30.977,67.237,33.178,65.042,35.892,65.042z"/>
<path fill="#EEEEEE" d="M552.305,138.667h29.492c2.715,0,4.915,2.195,4.915,4.908v39.267c0,2.713-2.201,4.908-4.915,4.908h-29.492
	c-2.717,0-4.915-2.195-4.915-4.908v-39.267C547.39,140.863,549.588,138.667,552.305,138.667z"/>
<path fill="#EEEEEE" d="M491.285,138.667h29.492c2.714,0,4.915,2.195,4.915,4.908v39.267c0,2.713-2.201,4.908-4.915,4.908h-29.492
	c-2.715,0-4.915-2.195-4.915-4.908v-39.267C486.37,140.863,488.571,138.667,491.285,138.667z"/>
<path fill="#EEEEEE" d="M430.268,138.667h29.492c2.715,0,4.915,2.195,4.915,4.908v39.267c0,2.713-2.201,4.908-4.915,4.908h-29.492
	c-2.714,0-4.915-2.195-4.915-4.908v-39.267C425.352,140.863,427.553,138.667,430.268,138.667z"/>
<path fill="#EEEEEE" d="M369.248,138.667h29.492c2.715,0,4.915,2.195,4.915,4.908v39.267c0,2.713-2.201,4.908-4.915,4.908h-29.492
	c-2.714,0-4.915-2.195-4.915-4.908v-39.267C364.332,140.863,366.533,138.667,369.248,138.667z"/>
<path fill="#EEEEEE" d="M308.231,138.667h29.492c2.714,0,4.915,2.195,4.915,4.908v39.267c0,2.713-2.201,4.908-4.915,4.908h-29.492
	c-2.715,0-4.915-2.195-4.915-4.908v-39.267C303.315,140.863,305.516,138.667,308.231,138.667z"/>
<path fill="#EEEEEE" d="M247.211,138.667h29.492c2.715,0,4.915,2.195,4.915,4.908v39.267c0,2.713-2.201,4.908-4.915,4.908h-29.492
	c-2.714,0-4.915-2.195-4.915-4.908v-39.267C242.295,140.863,244.496,138.667,247.211,138.667z"/>
<path fill="#EEEEEE" d="M186.193,138.667h29.492c2.715,0,4.915,2.195,4.915,4.908v39.267c0,2.713-2.201,4.908-4.915,4.908h-29.492
	c-2.714,0-4.915-2.195-4.915-4.908v-39.267C181.278,140.863,183.479,138.667,186.193,138.667z"/>
<path fill="#EEEEEE" d="M125.173,138.667h29.492c2.714,0,4.915,2.195,4.915,4.908v39.267c0,2.713-2.201,4.908-4.915,4.908h-29.492
	c-2.715,0-4.915-2.195-4.915-4.908v-39.267C120.258,140.863,122.459,138.667,125.173,138.667z"/>
<path fill="#EEEEEE" d="M64.156,138.667h29.492c2.714,0,4.915,2.195,4.915,4.908v39.267c0,2.713-2.201,4.908-4.915,4.908H64.156
	c-2.714,0-4.915-2.195-4.915-4.908v-39.267C59.24,140.863,61.441,138.667,64.156,138.667z"/>
<path fill="#EEEEEE" d="M491.794,212.293h29.492c2.714,0,4.915,2.195,4.915,4.908v39.267c0,2.713-2.201,4.908-4.915,4.908h-29.492
	c-2.714,0-4.915-2.195-4.915-4.908v-39.267C486.879,214.488,489.08,212.293,491.794,212.293z"/>
<path fill="#EEEEEE" d="M430.777,212.293h29.492c2.715,0,4.915,2.195,4.915,4.908v39.267c0,2.713-2.201,4.908-4.915,4.908h-29.492
	c-2.714,0-4.915-2.195-4.915-4.908v-39.267C425.861,214.488,428.062,212.293,430.777,212.293z"/>
<path fill="#EEEEEE" d="M369.757,212.293h29.492c2.714,0,4.915,2.195,4.915,4.908v39.267c0,2.713-2.201,4.908-4.915,4.908h-29.492
	c-2.715,0-4.915-2.195-4.915-4.908v-39.267C364.841,214.488,367.042,212.293,369.757,212.293z"/>
<path fill="#EEEEEE" d="M308.739,212.293h29.492c2.714,0,4.915,2.195,4.915,4.908v39.267c0,2.713-2.201,4.908-4.915,4.908h-29.492
	c-2.715,0-4.915-2.195-4.915-4.908v-39.267C303.824,214.488,306.025,212.293,308.739,212.293z"/>
<path fill="#EEEEEE" d="M247.719,212.293h29.492c2.715,0,4.915,2.195,4.915,4.908v39.267c0,2.713-2.201,4.908-4.915,4.908h-29.492
	c-2.714,0-4.915-2.195-4.915-4.908v-39.267C242.804,214.488,245.005,212.293,247.719,212.293z"/>
<path fill="#EEEEEE" d="M186.702,212.293h29.492c2.714,0,4.915,2.195,4.915,4.908v39.267c0,2.713-2.201,4.908-4.915,4.908h-29.492
	c-2.715,0-4.915-2.195-4.915-4.908v-39.267C181.787,214.488,183.987,212.293,186.702,212.293z"/>
<path fill="#EEEEEE" d="M125.682,212.293h29.492c2.714,0,4.915,2.195,4.915,4.908v39.267c0,2.713-2.201,4.908-4.915,4.908h-29.492
	c-2.715,0-4.915-2.195-4.915-4.908v-39.267C120.767,214.488,122.967,212.293,125.682,212.293z"/>
<path fill="#BBBBBB" d="M552.008,212.293h63.9c2.714,0,4.915,2.195,4.915,4.908v39.267c0,2.713-2.201,4.908-4.915,4.908h-63.9
	c-2.714,0-4.915-2.195-4.915-4.908v-39.267C547.092,214.488,549.293,212.293,552.008,212.293z"/>
<path fill="#BBBBBB" d="M35.892,212.293h49.154c2.714,0,4.915,2.195,4.915,4.908v39.267c0,2.713-2.201,4.908-4.915,4.908H35.892
	c-2.714,0-4.915-2.195-4.915-4.908v-39.267C30.977,214.488,33.178,212.293,35.892,212.293z"/>
<path fill="#EEEEEE" d="M188.053,285.918h270.439c3.46,0,6.267,2.196,6.267,4.908v39.267c0,2.713-2.806,4.908-6.267,4.908H188.053
	c-3.46,0-6.267-2.195-6.267-4.908v-39.267C181.787,288.114,184.593,285.918,188.053,285.918z"/>
<path fill="#BBBBBB" d="M502.854,285.918h113.054c2.714,0,4.915,2.196,4.915,4.908v39.267c0,2.713-2.201,4.908-4.915,4.908H502.854
	c-2.714,0-4.915-2.195-4.915-4.908v-39.267C497.938,288.114,500.139,285.918,502.854,285.918z"/>
<path fill="#BBBBBB" d="M35.892,285.918h105.323c2.714,0,4.915,2.196,4.915,4.908v39.267c0,2.713-2.201,4.908-4.915,4.908H35.892
	c-2.714,0-4.915-2.195-4.915-4.908v-39.267C30.977,288.114,33.178,285.918,35.892,285.918z"/>
</svg>
